<?xml version='1.0' encoding='iso-8859-1'?>
<svg version="1.1" xmlns="http://www.w3.org/2000/svg" viewBox="0 0 295.896 295.896" xmlns:xlink="http://www.w3.org/1999/xlink" enable-background="new 0 0 295.896 295.896">
  <g>
    <path d="m181.01,3.518c-10.441-1.74-22.621-3.48-33.062-3.48-69.605,0-128.769,46.983-144.43,114.848-17.401,80.046 31.322,160.091 111.368,177.492 10.441,1.74 22.621,3.48 33.062,3.48 69.605,0 128.769-46.983 144.43-114.848 17.401-80.045-31.322-160.091-111.368-177.492zm87.858,93.131l-108.74,37.378 25.702-110.828c38.614,11.171 68.074,38.943 83.038,73.45zm-120.92-79.21c6.038,7.10543e-15 13.016,0.922 20.15,2.018l-27.65,119.79h-122.33c0.417-6.943 1.236-13.921 2.802-20.882 13.92-59.163 66.124-100.926 127.028-100.926zm128.769,160.091c-13.921,59.164-66.124,100.927-127.029,100.927-10.441,0-20.882-1.74-29.582-3.48-58.207-12.773-97.847-62.609-101.988-118.328h129.83c2.819,0 5.046-1.062 6.577-2.819l120.034-41.676c6.073,20.724 7.169,43.137 2.158,65.376z"/>
  </g>
</svg>
